<mxfile host="app.diagrams.net" modified="2020-11-30T13:17:00.398Z" agent="5.0 (Windows NT 10.0; Win64; x64) AppleWebKit/537.36 (KHTML, like Gecko) Chrome/86.0.4240.198 Safari/537.36" etag="URvQCzqkZ9XAIf0wiin0" version="13.10.4" type="github">
  <diagram id="ZOz2fEF3mdrHTonaRoxL" name="Page-1">
    <mxGraphModel dx="1108" dy="516" grid="1" gridSize="10" guides="1" tooltips="1" connect="1" arrows="1" fold="1" page="1" pageScale="1" pageWidth="827" pageHeight="1169" math="0" shadow="0">
      <root>
        <mxCell id="0" />
        <mxCell id="1" parent="0" />
      </root>
    </mxGraphModel>
  </diagram>
</mxfile>
